<svg id="svg" version="1.1" xmlns="http://www.w3.org/2000/svg" xmlns:xlink="http://www.w3.org/1999/xlink" width="400" height="253.61702127659572" viewBox="0, 0, 400,253.61702127659572"><g id="svgg"><path id="path0" d="M174.333 98.186 C 172.361 98.509,170.149 100.095,168.669 102.246 C 167.882 103.390,166.792 105.838,166.891 106.240 C 166.937 106.429,167.357 107.662,167.824 108.980 C 170.485 116.493,172.153 126.604,172.164 135.284 L 172.167 137.318 171.542 137.497 C 170.107 137.910,165.992 138.499,162.250 138.827 C 146.585 140.199,141.822 142.342,138.426 149.543 C 135.287 156.202,135.399 168.520,138.662 175.438 C 139.966 178.205,140.894 179.490,142.921 181.340 C 146.838 184.916,153.392 186.600,160.542 185.867 C 161.252 185.794,161.833 185.769,161.833 185.811 C 161.833 185.853,161.539 186.794,161.179 187.902 C 159.188 194.029,160.607 194.641,169.167 191.347 C 174.680 189.225,175.566 187.735,177.988 176.500 C 178.176 175.629,178.595 173.342,178.919 171.417 C 179.846 165.911,181.309 158.896,182.082 156.250 C 182.690 154.166,184.848 142.557,185.664 136.979 C 185.843 135.753,186.070 134.225,186.168 133.583 C 187.241 126.543,187.417 116.491,186.563 111.083 C 185.175 102.301,180.338 97.200,174.333 98.186 M47.917 99.115 C 42.149 99.863,33.559 103.159,30.000 105.990 C 28.669 107.049,28.318 107.394,27.191 108.750 C 26.583 109.483,25.947 110.233,25.778 110.417 C 20.997 115.624,14.413 132.215,10.654 148.529 C 9.343 154.221,9.011 155.803,8.356 159.500 C 2.750 191.140,2.711 220.078,8.259 231.763 C 10.107 235.653,15.345 239.553,22.500 242.365 C 23.646 242.815,24.808 243.285,25.083 243.408 C 27.090 244.310,33.459 245.955,39.250 247.068 C 52.836 249.677,69.866 249.655,80.707 247.015 C 87.796 245.288,91.000 243.678,96.363 239.149 C 109.616 227.955,116.924 217.848,113.893 214.905 C 113.080 214.115,107.670 212.840,106.065 213.060 C 104.673 213.251,103.003 214.535,98.994 218.500 C 95.552 221.904,87.628 228.622,85.250 230.152 C 76.779 235.604,63.989 237.302,50.687 234.741 C 45.581 233.758,40.402 232.285,37.646 231.032 C 37.061 230.766,35.946 230.265,35.167 229.917 C 33.413 229.134,30.099 227.277,29.667 226.835 C 29.621 226.788,29.054 226.322,28.408 225.799 C 25.316 223.300,24.718 221.787,24.879 216.869 C 25.037 212.058,27.054 203.173,29.862 194.917 C 31.889 188.955,33.441 184.549,34.169 182.682 C 34.620 181.528,35.598 178.971,36.343 177.000 C 37.088 175.029,37.832 173.117,37.998 172.750 C 38.163 172.383,39.046 170.207,39.961 167.914 C 40.875 165.620,41.776 163.408,41.963 162.997 C 42.151 162.586,43.030 160.487,43.917 158.333 C 44.804 156.179,45.739 153.967,45.995 153.417 C 46.250 152.867,47.189 150.692,48.080 148.583 C 48.972 146.475,49.965 144.188,50.286 143.500 C 50.608 142.813,50.936 142.080,51.015 141.873 C 51.396 140.881,53.886 135.063,53.993 134.917 C 54.060 134.825,54.698 133.362,55.410 131.667 C 56.123 129.971,57.142 127.566,57.676 126.322 C 60.927 118.740,61.421 116.755,61.410 111.333 C 61.391 102.152,56.768 97.966,47.917 99.115 M301.641 99.272 C 300.593 100.451,300.675 111.004,301.835 124.500 C 305.537 167.549,305.590 201.268,301.982 217.061 C 298.323 233.073,293.773 239.072,282.500 242.745 C 281.996 242.910,281.508 243.097,281.417 243.161 C 281.325 243.225,280.762 243.449,280.167 243.660 C 275.631 245.263,275.135 247.124,278.330 250.546 C 280.549 252.922,282.149 253.421,287.500 253.407 L 291.250 253.397 293.500 252.804 C 301.483 250.697,308.265 245.118,311.747 237.794 C 315.376 230.158,315.704 226.536,314.912 202.820 C 314.766 198.459,314.670 194.494,314.699 194.009 L 314.750 193.127 317.333 192.017 C 320.052 190.849,326.386 187.474,328.712 185.954 C 336.889 180.608,341.209 177.401,345.333 173.613 C 346.296 172.729,347.133 172.005,347.195 172.003 C 347.256 172.001,347.811 173.294,348.428 174.875 C 349.044 176.456,349.685 178.050,349.851 178.417 C 350.211 179.210,352.518 185.091,353.121 186.750 C 353.354 187.392,353.714 188.292,353.922 188.750 C 354.130 189.208,354.988 191.421,355.827 193.667 C 356.667 195.912,357.684 198.575,358.086 199.583 C 358.489 200.592,359.465 203.179,360.255 205.333 C 361.045 207.487,361.796 209.475,361.925 209.750 C 362.054 210.025,362.727 211.825,363.421 213.750 C 364.921 217.907,364.656 217.570,366.087 217.142 C 374.442 214.643,386.528 207.539,388.023 204.250 C 390.251 199.347,382.010 181.426,367.782 160.233 C 361.078 150.246,355.828 143.210,348.519 134.417 C 339.109 123.094,330.254 114.347,321.417 107.644 C 314.322 102.262,303.176 97.544,301.641 99.272 M212.250 115.812 C 209.736 116.467,207.097 120.212,205.431 125.487 C 203.583 131.337,206.644 132.902,216.197 130.994 C 219.804 130.274,221.456 129.365,222.379 127.591 C 224.564 123.392,216.984 114.577,212.250 115.812 M320.746 122.333 C 323.071 123.462,325.896 127.094,329.953 134.167 C 331.110 136.183,334.896 143.577,335.640 145.273 C 335.917 145.903,336.680 147.543,337.335 148.918 C 337.991 150.292,339.234 153.054,340.099 155.056 C 340.963 157.057,341.853 159.082,342.076 159.556 C 342.665 160.804,343.499 162.885,343.499 163.109 C 343.500 163.376,339.618 166.854,337.841 168.177 C 337.033 168.779,336.140 169.466,335.857 169.705 C 334.964 170.456,328.208 174.363,326.291 175.236 C 322.722 176.863,318.794 177.961,315.984 178.116 L 314.218 178.214 314.111 177.680 C 313.669 175.472,313.418 144.991,313.799 139.917 C 314.908 125.153,316.783 120.407,320.746 122.333 M219.250 138.608 C 218.883 138.637,217.533 138.740,216.250 138.837 C 211.451 139.200,208.189 139.742,207.667 140.263 C 207.384 140.544,207.381 140.868,207.482 158.167 C 207.566 172.448,207.123 180.063,205.659 189.542 C 205.209 192.455,205.038 192.186,207.458 192.374 C 211.004 192.649,214.321 192.340,214.852 191.685 C 215.237 191.209,216.346 183.452,217.583 172.583 C 217.729 171.300,217.919 169.875,218.006 169.417 C 218.093 168.958,218.874 162.171,219.742 154.333 C 220.609 146.496,221.362 139.727,221.415 139.292 L 221.511 138.500 220.714 138.528 C 220.275 138.543,219.617 138.580,219.250 138.608 M165.944 147.475 C 167.700 147.853,171.299 148.976,171.428 149.186 C 171.963 150.051,168.890 164.953,166.741 171.917 C 165.342 176.450,165.652 176.138,162.520 176.155 C 151.121 176.215,145.633 169.434,148.029 158.250 C 149.957 149.250,156.345 145.408,165.944 147.475 M283.492 147.677 C 280.850 148.503,276.107 149.231,270.000 149.749 C 250.738 151.383,244.793 155.157,241.731 167.693 C 241.002 170.677,240.758 178.169,241.252 182.418 C 243.251 199.630,256.081 208.026,277.155 205.912 C 280.863 205.541,288.167 204.207,288.167 203.901 C 288.167 203.735,286.552 200.813,285.809 199.634 C 285.364 198.929,285.000 198.305,285.000 198.249 C 285.000 198.016,282.066 193.684,281.148 192.561 C 279.496 190.539,278.865 190.286,277.613 191.145 C 276.663 191.797,274.870 192.418,272.806 192.809 C 264.118 194.457,257.375 191.497,255.202 185.083 C 253.128 178.961,254.700 168.323,258.259 164.390 C 258.661 163.946,258.991 163.535,258.994 163.476 C 259.010 163.175,261.882 161.073,262.981 160.558 C 267.752 158.325,275.417 158.750,282.131 161.621 C 282.890 161.945,283.543 162.179,283.583 162.139 C 283.641 162.082,284.364 151.472,284.526 148.297 C 284.576 147.315,284.602 147.330,283.492 147.677 M102.444 152.611 C 102.239 152.816,102.331 153.508,102.646 154.132 C 104.168 157.147,105.452 168.196,105.023 174.593 C 104.138 187.788,99.298 193.481,90.500 191.674 C 78.133 189.135,73.899 175.019,79.423 154.741 C 79.931 152.877,79.932 152.880,78.978 153.325 C 78.578 153.512,76.450 154.331,74.250 155.146 C 72.050 155.961,69.387 156.969,68.333 157.386 C 67.279 157.803,66.221 158.219,65.981 158.309 L 65.545 158.474 65.776 159.696 C 66.291 162.432,66.871 166.586,67.664 173.226 C 69.312 187.022,70.296 191.624,72.660 196.583 C 76.696 205.049,84.246 207.934,96.167 205.565 C 115.228 201.777,121.057 183.722,111.947 156.687 L 111.083 154.123 109.500 153.644 C 106.394 152.704,102.868 152.188,102.444 152.611 " stroke="none" fill="#f4941c" fill-rule="evenodd"></path><path id="path1" d="M101.648 0.230 C 96.505 2.068,100.069 8.840,110.000 16.101 C 111.405 17.129,111.430 17.159,111.628 18.103 C 112.836 23.862,120.227 28.365,125.698 26.675 L 126.479 26.433 125.406 25.791 L 124.333 25.148 124.333 22.833 L 124.333 20.518 125.708 21.266 C 126.465 21.677,127.974 22.466,129.062 23.018 L 131.041 24.023 131.538 23.553 C 132.706 22.449,133.996 20.162,134.531 18.250 C 137.126 8.969,128.317 0.692,119.183 3.828 L 117.627 4.362 115.939 3.607 C 108.849 0.439,104.163 -0.669,101.648 0.230 M106.667 4.844 C 108.393 5.272,109.596 5.699,111.852 6.684 L 113.788 7.529 113.144 8.494 C 112.790 9.024,112.318 9.936,112.095 10.521 C 111.867 11.119,111.602 11.562,111.488 11.534 C 110.730 11.348,105.108 6.015,104.443 4.850 L 104.135 4.312 104.776 4.423 C 105.128 4.484,105.979 4.673,106.667 4.844 M286.676 35.708 C 286.478 36.465,286.168 37.571,285.986 38.167 C 285.627 39.344,284.000 45.900,284.000 46.168 C 284.000 46.343,285.677 46.393,286.263 46.236 C 286.453 46.185,286.747 45.909,286.916 45.622 C 287.906 43.947,290.482 41.715,292.072 41.157 C 294.966 40.139,310.682 38.958,311.424 39.701 C 311.489 39.766,311.161 40.291,310.697 40.868 C 309.999 41.734,307.467 45.120,306.083 47.037 C 304.723 48.922,302.285 52.172,301.923 52.583 C 301.239 53.359,298.047 57.515,296.750 59.318 C 296.108 60.210,295.017 61.647,294.324 62.512 C 292.071 65.323,286.392 72.798,284.689 75.193 L 283.629 76.684 283.746 78.092 L 283.863 79.500 286.224 79.500 C 287.523 79.500,291.322 79.380,294.668 79.234 C 300.996 78.958,306.431 78.984,318.151 79.348 C 322.359 79.478,323.747 79.473,323.837 79.327 C 323.956 79.135,324.098 77.612,324.583 71.333 C 324.721 69.546,324.866 67.840,324.906 67.542 L 324.979 67.000 323.674 67.000 C 322.753 67.000,322.344 67.064,322.285 67.218 C 322.186 67.476,321.347 68.641,319.786 70.686 C 317.296 73.950,313.974 75.574,308.872 76.022 C 305.669 76.303,296.000 76.031,296.000 75.659 C 296.000 75.559,302.894 66.242,305.501 62.819 C 305.821 62.398,306.555 61.423,307.131 60.652 C 307.707 59.881,308.813 58.425,309.588 57.417 C 312.278 53.918,317.096 47.580,317.588 46.890 C 317.861 46.509,318.788 45.197,319.649 43.974 C 320.510 42.751,321.606 41.262,322.085 40.667 C 323.525 38.874,323.833 38.284,323.833 37.316 L 323.833 36.459 315.542 36.548 C 310.981 36.597,305.000 36.764,302.250 36.920 C 291.086 37.552,290.681 37.503,289.637 35.381 L 289.121 34.333 288.079 34.333 L 287.037 34.333 286.676 35.708 M14.833 35.244 C 11.072 35.793,8.536 37.088,6.332 39.585 C 1.179 45.422,3.077 55.427,10.000 58.910 C 10.321 59.072,11.018 59.424,11.549 59.693 C 12.628 60.241,14.335 60.908,17.667 62.086 C 24.600 64.536,27.026 66.696,26.799 70.212 C 26.297 77.958,12.609 79.137,9.088 71.737 C 8.916 71.378,8.378 70.237,7.892 69.202 L 7.007 67.321 5.462 67.369 L 3.917 67.417 3.974 72.166 C 4.035 77.142,4.066 77.355,4.797 77.728 C 5.322 77.997,9.358 79.152,11.667 79.694 C 14.892 80.451,20.438 80.183,23.250 79.135 C 29.810 76.689,32.742 72.512,32.703 65.667 C 32.664 58.806,29.201 55.165,19.863 52.167 C 18.426 51.706,17.100 51.258,16.917 51.173 C 16.733 51.088,15.770 50.641,14.776 50.180 C 7.539 46.824,9.000 38.592,16.833 38.585 C 21.237 38.581,23.615 40.611,25.538 46.015 L 25.918 47.083 27.371 47.228 C 29.528 47.443,29.403 47.620,29.282 44.537 C 29.189 42.164,28.850 38.996,28.531 37.515 C 28.201 35.978,19.583 34.549,14.833 35.244 M71.250 35.279 C 58.126 36.926,49.738 48.394,51.736 61.961 C 52.749 68.840,56.782 74.489,62.855 77.532 C 70.104 81.165,85.247 80.988,90.628 77.208 C 91.037 76.921,91.707 73.984,92.755 67.875 L 92.848 67.333 92.035 67.333 C 89.908 67.333,89.468 67.553,88.165 69.264 C 82.704 76.434,76.272 78.555,69.737 75.341 C 66.583 73.790,64.815 71.590,63.335 67.374 C 61.314 61.616,61.912 50.819,64.543 45.583 C 69.305 36.107,80.410 36.246,87.885 45.875 L 88.887 47.167 90.489 47.167 L 92.091 47.167 91.975 45.581 C 91.856 43.948,90.916 40.143,90.067 37.850 L 89.635 36.686 88.506 36.429 C 84.008 35.406,75.015 34.807,71.250 35.279 M361.436 36.708 C 361.111 37.556,360.211 39.938,359.435 42.000 C 358.660 44.063,357.649 46.725,357.191 47.917 C 356.732 49.108,355.833 51.471,355.193 53.167 C 354.138 55.961,352.836 59.384,348.622 70.433 C 346.569 75.817,346.563 75.824,342.774 76.595 C 341.675 76.819,340.761 77.021,340.743 77.043 C 340.725 77.065,340.657 77.639,340.592 78.318 L 340.475 79.553 342.529 79.446 C 343.659 79.387,345.209 79.227,345.973 79.091 C 347.198 78.873,347.848 78.873,351.473 79.087 C 353.734 79.220,355.977 79.331,356.458 79.332 L 357.333 79.333 357.333 78.083 C 357.333 77.396,357.277 76.833,357.208 76.832 C 356.704 76.829,353.071 76.129,352.781 75.979 C 351.156 75.142,351.360 73.871,354.324 66.375 L 355.197 64.167 361.490 64.167 L 367.783 64.167 368.796 66.708 C 369.353 68.106,370.192 70.188,370.661 71.333 C 372.502 75.836,372.605 75.607,368.300 76.562 L 365.917 77.090 365.867 78.237 L 365.817 79.384 368.450 79.274 C 375.643 78.975,378.615 78.965,382.211 79.232 C 384.206 79.379,386.333 79.500,386.938 79.500 L 388.038 79.500 387.972 78.336 C 387.891 76.909,387.893 76.911,386.159 76.501 C 385.384 76.318,384.413 76.088,384.002 75.991 C 382.590 75.656,381.661 73.945,379.166 67.083 C 378.866 66.258,378.440 65.208,378.220 64.750 C 377.999 64.292,377.452 62.979,377.005 61.833 C 376.558 60.688,375.707 58.512,375.116 57.000 C 374.002 54.151,371.078 47.187,370.079 45.000 C 369.765 44.313,369.328 43.300,369.109 42.750 C 367.852 39.599,366.277 35.866,366.068 35.542 C 365.840 35.189,365.713 35.167,363.926 35.167 L 362.026 35.167 361.436 36.708 M111.167 36.453 C 111.167 36.912,111.214 37.629,111.271 38.048 L 111.375 38.809 112.646 38.915 C 117.082 39.285,117.042 39.250,117.159 42.872 C 117.258 45.924,117.254 46.986,117.082 63.333 C 116.943 76.614,117.338 75.321,113.083 76.426 L 111.083 76.945 111.035 78.222 C 110.977 79.724,110.609 79.603,114.167 79.250 C 117.574 78.912,124.359 78.923,128.083 79.273 C 129.733 79.428,131.365 79.502,131.708 79.437 L 132.333 79.318 132.333 77.931 L 132.333 76.544 130.792 76.353 C 128.365 76.053,126.892 75.806,126.651 75.657 C 126.327 75.457,126.408 40.527,126.733 40.198 C 126.851 40.078,127.879 39.726,129.016 39.416 C 130.153 39.105,131.383 38.746,131.750 38.618 L 132.417 38.384 132.465 37.002 L 132.514 35.619 131.465 35.720 C 126.222 36.223,120.739 36.223,112.792 35.722 L 111.167 35.619 111.167 36.453 M258.167 36.115 C 254.729 36.241,251.598 36.384,251.208 36.432 L 250.500 36.520 250.500 37.573 C 250.500 39.003,250.356 38.922,254.388 39.758 C 256.502 40.196,256.651 40.404,256.842 43.167 C 256.927 44.404,257.077 46.279,257.174 47.333 C 257.271 48.387,257.421 51.237,257.508 53.667 C 257.594 56.096,257.738 59.321,257.827 60.833 C 257.916 62.346,258.035 64.558,258.091 65.750 L 258.194 67.917 243.795 53.500 C 235.875 45.571,228.677 38.425,227.799 37.620 L 226.201 36.157 219.809 36.233 C 216.293 36.275,212.910 36.314,212.292 36.321 L 211.167 36.333 211.167 37.146 C 211.167 38.935,211.103 38.872,213.351 39.276 C 216.696 39.875,218.735 41.246,219.261 43.250 C 219.809 45.337,219.885 73.190,219.349 75.398 C 219.047 76.640,218.509 76.815,214.958 76.826 L 212.667 76.833 212.667 78.247 C 212.667 79.976,212.681 79.983,215.415 79.698 C 219.275 79.297,222.849 79.282,226.332 79.653 C 231.664 80.222,231.302 80.346,231.061 78.034 C 230.934 76.820,231.046 76.879,228.441 76.660 C 225.749 76.434,224.625 76.222,224.382 75.894 C 223.808 75.119,223.539 71.180,223.336 60.583 C 223.252 56.183,223.135 51.233,223.077 49.583 L 222.972 46.583 224.028 47.594 C 224.608 48.151,225.383 48.856,225.750 49.163 C 228.587 51.535,232.956 55.798,245.991 68.917 L 257.583 80.583 259.641 80.630 L 261.698 80.677 261.593 73.547 C 261.470 65.136,261.225 56.377,261.003 52.417 C 260.696 46.957,260.725 41.230,261.060 40.859 C 261.521 40.350,263.150 39.553,264.333 39.258 C 264.929 39.110,265.567 38.925,265.750 38.848 C 265.933 38.771,266.290 38.625,266.542 38.524 C 266.985 38.347,267.000 38.299,267.000 37.087 L 267.000 35.833 265.708 35.859 C 264.998 35.873,261.604 35.988,258.167 36.115 M150.278 36.111 C 150.217 36.172,150.167 36.808,150.167 37.525 C 150.167 39.033,150.006 38.920,152.365 39.073 C 153.601 39.153,155.020 39.380,156.631 39.754 C 157.443 39.943,157.629 44.183,157.680 63.750 C 157.712 75.912,157.725 75.708,156.859 76.052 C 155.999 76.394,151.453 77.167,150.299 77.167 C 150.226 77.167,150.167 77.737,150.167 78.434 L 150.167 79.701 152.542 79.601 C 153.848 79.546,156.979 79.414,159.500 79.308 C 164.974 79.079,175.190 79.199,183.738 79.593 C 187.141 79.750,190.391 79.819,191.267 79.753 L 192.808 79.637 192.997 78.444 C 193.270 76.721,193.926 73.276,194.494 70.583 C 194.764 69.300,194.989 67.969,194.993 67.625 L 195.000 67.000 193.596 67.000 L 192.192 67.000 191.346 68.771 C 188.410 74.917,185.798 76.162,175.829 76.165 C 169.912 76.167,168.206 75.916,167.604 74.955 C 167.341 74.536,167.082 59.407,167.330 59.005 C 167.510 58.714,177.250 58.545,178.900 58.805 C 180.840 59.110,181.446 60.102,182.409 64.542 L 182.689 65.833 183.895 65.833 L 185.100 65.833 185.078 58.792 C 185.066 54.919,185.044 51.019,185.028 50.125 L 185.000 48.500 183.761 48.500 C 182.723 48.500,182.509 48.547,182.441 48.792 C 182.397 48.952,182.119 50.080,181.825 51.297 C 180.808 55.500,180.620 55.587,172.061 55.778 L 167.373 55.883 167.253 50.983 C 167.120 45.537,167.182 39.761,167.376 39.568 C 167.608 39.337,176.236 39.283,179.538 39.492 C 184.685 39.818,185.147 39.890,185.657 40.443 C 186.600 41.465,188.430 44.603,189.165 46.458 L 189.578 47.500 190.922 47.500 L 192.266 47.500 192.197 42.458 C 192.110 36.143,192.295 36.613,189.791 36.359 C 187.321 36.108,175.488 36.111,169.250 36.363 C 161.887 36.660,156.026 36.633,153.333 36.288 C 150.852 35.971,150.442 35.947,150.278 36.111 M363.282 52.488 C 363.785 53.732,364.560 55.725,365.003 56.917 C 365.446 58.108,365.927 59.362,366.071 59.703 C 366.215 60.044,366.333 60.363,366.333 60.411 C 366.333 60.460,364.128 60.500,361.433 60.500 L 356.533 60.500 357.278 58.542 C 358.325 55.788,361.165 48.111,361.175 48.005 C 361.197 47.770,362.469 50.476,363.282 52.488 " stroke="none" fill="#0675bc" fill-rule="evenodd"></path><path id="path2" d="M134.934 15.904 C 134.873 16.577,134.677 17.643,134.499 18.272 L 134.174 19.417 134.708 19.833 C 139.652 23.692,144.382 28.174,143.957 28.598 C 143.715 28.840,138.591 27.342,136.697 26.475 C 136.118 26.211,135.218 25.815,134.697 25.597 C 131.573 24.290,126.131 21.625,124.708 20.704 L 124.333 20.462 124.333 22.802 L 124.333 25.143 125.375 25.769 C 125.948 26.113,126.649 26.569,126.933 26.782 C 127.440 27.161,133.014 29.827,133.833 30.082 C 134.063 30.154,134.709 30.422,135.271 30.678 C 140.925 33.258,146.365 33.678,148.058 31.666 C 150.561 28.692,147.060 23.566,137.773 16.610 C 134.797 14.381,135.066 14.448,134.934 15.904 " stroke="none" fill="#8abee7" fill-rule="evenodd"></path><path id="path3" d="" stroke="none" fill="#f8a050" fill-rule="evenodd"></path><path id="path4" d="" stroke="none" fill="#f8a050" fill-rule="evenodd"></path></g></svg>