<svg width="1155" height="271" viewBox="0 0 1155 271" fill="none" xmlns="http://www.w3.org/2000/svg">
<path fill-rule="evenodd" clip-rule="evenodd" d="M616.107 110.109L603.262 158.048L638.355 193.142L686.294 180.297L699.14 132.358L664.046 97.264L616.107 110.109ZM588.699 76.1933C585.523 77.0443 583.042 79.5252 582.191 82.7014L560.186 164.826C559.335 168.002 560.243 171.391 562.568 173.716L622.687 233.836C625.012 236.161 628.401 237.069 631.577 236.218L713.702 214.213C716.878 213.362 719.359 210.881 720.21 207.704L742.215 125.58C743.066 122.404 742.158 119.015 739.833 116.69L679.714 56.5702C677.389 54.245 674 53.337 670.824 54.188L588.699 76.1933Z" fill="#4FCBF7"/>
<path fill-rule="evenodd" clip-rule="evenodd" d="M546.404 110.25L533.559 158.189L568.652 193.282L616.591 180.437L629.436 132.498L594.343 97.4046L546.404 110.25ZM518.996 76.3339C515.82 77.1849 513.339 79.6658 512.488 82.842L490.483 164.967C489.632 168.143 490.54 171.532 492.865 173.857L552.984 233.976C555.309 236.301 558.698 237.209 561.874 236.358L643.999 214.353C647.175 213.502 649.656 211.021 650.507 207.845L672.512 125.72C673.363 122.544 672.455 119.155 670.13 116.83L610.011 56.7108C607.686 54.3857 604.297 53.4776 601.121 54.3287L518.996 76.3339Z" fill="#F04D4D"/>
<path d="M37.33 233.718V12.9843H73.0369V233.718H37.33ZM0 110.367V77.906H110.367V110.367H0Z" fill="#fff"/>
<path d="M200.261 236.964C187.06 236.964 175.266 234.043 164.878 228.2C154.707 222.357 146.7 214.35 140.857 204.179C135.231 193.791 132.417 181.889 132.417 168.472V77.906H168.124V166.849C168.124 174.423 169.315 180.915 171.695 186.325C174.292 191.519 177.971 195.523 182.732 198.336C187.709 201.149 193.552 202.556 200.261 202.556C210.648 202.556 218.547 199.526 223.957 193.467C229.584 187.191 232.397 178.318 232.397 166.849V77.906H268.104V168.472C268.104 182.105 265.182 194.116 259.339 204.503C253.713 214.674 245.814 222.681 235.643 228.524C225.472 234.151 213.678 236.964 200.261 236.964Z" fill="#fff"/>
<path d="M387.43 236.964C375.528 236.964 364.924 234.476 355.619 229.498C346.313 224.304 338.955 217.271 333.545 208.399C328.352 199.526 325.755 189.463 325.755 178.21V133.414C325.755 122.161 328.46 112.098 333.87 103.225C339.28 94.3529 346.638 87.4279 355.943 82.4506C365.249 77.2568 375.744 74.6599 387.43 74.6599C401.497 74.6599 414.156 78.3388 425.41 85.6966C436.879 92.838 445.86 102.576 452.352 114.911C459.061 127.03 462.415 140.772 462.415 156.137C462.415 171.285 459.061 185.027 452.352 197.362C445.86 209.481 436.879 219.111 425.41 226.252C414.156 233.394 401.497 236.964 387.43 236.964ZM304.006 233.718V0H339.713V116.21L333.545 153.864L339.713 191.844V233.718H304.006ZM381.587 203.205C390.244 203.205 397.818 201.257 404.31 197.362C411.019 193.25 416.212 187.624 419.891 180.482C423.787 173.341 425.734 165.118 425.734 155.812C425.734 146.507 423.787 138.283 419.891 131.142C416.212 124 411.019 118.482 404.31 114.587C397.818 110.475 390.244 108.419 381.587 108.419C372.931 108.419 365.249 110.475 358.54 114.587C351.832 118.482 346.638 124 342.959 131.142C339.28 138.283 337.441 146.507 337.441 155.812C337.441 165.118 339.28 173.341 342.959 180.482C346.638 187.624 351.832 193.25 358.54 197.362C365.249 201.257 372.931 203.205 381.587 203.205Z" fill="#fff"/>
<path d="M775.586 233.718V0H811.293V233.718H775.586Z" fill="#fff"/>
<path d="M916.278 236.964C902.212 236.964 889.444 233.394 877.975 226.252C866.721 219.111 857.741 209.481 851.032 197.362C844.54 185.027 841.294 171.285 841.294 156.137C841.294 140.772 844.54 127.03 851.032 114.911C857.741 102.576 866.721 92.838 877.975 85.6966C889.444 78.3388 902.212 74.66 916.278 74.66C928.181 74.66 938.676 77.2568 947.765 82.4506C957.071 87.4279 964.429 94.3529 969.839 103.225C975.249 112.098 977.954 122.161 977.954 133.414V178.21C977.954 189.463 975.249 199.526 969.839 208.399C964.645 217.271 957.395 224.304 948.09 229.498C938.785 234.476 928.181 236.964 916.278 236.964ZM922.121 203.205C935.322 203.205 945.926 198.769 953.933 189.896C962.156 181.023 966.268 169.662 966.268 155.812C966.268 146.507 964.429 138.283 960.75 131.142C957.071 124 951.877 118.482 945.169 114.587C938.676 110.475 930.994 108.419 922.121 108.419C913.465 108.419 905.783 110.475 899.074 114.587C892.582 118.482 887.388 124 883.493 131.142C879.814 138.283 877.975 146.507 877.975 155.812C877.975 165.118 879.814 173.341 883.493 180.482C887.388 187.624 892.582 193.25 899.074 197.362C905.783 201.257 913.465 203.205 922.121 203.205ZM963.996 233.718V191.844L970.163 153.864L963.996 116.21V77.906H999.703V233.718H963.996Z" fill="#fff"/>
<path d="M1039.33 233.718V77.906H1075.04V233.718H1039.33ZM1075.04 147.048L1062.7 140.88C1062.7 121.187 1067.03 105.281 1075.69 93.1626C1084.56 80.8275 1097.87 74.66 1115.61 74.66C1123.4 74.66 1130.44 76.0666 1136.71 78.8799C1142.99 81.6931 1148.83 86.2377 1154.24 92.5134L1130.87 116.534C1128.06 113.505 1124.92 111.341 1121.46 110.042C1117.99 108.744 1113.99 108.095 1109.45 108.095C1099.49 108.095 1091.27 111.233 1084.78 117.508C1078.28 123.784 1075.04 133.63 1075.04 147.048Z" fill="#fff"/>
</svg>
